<svg xmlns="http://www.w3.org/2000/svg" xmlns:xlink="http://www.w3.org/1999/xlink" width="500" zoomAndPan="magnify" viewBox="0 0 375 74.999997" height="100" preserveAspectRatio="xMidYMid meet" version="1.0"><defs><g/><clipPath id="f244c6b59d"><path d="M 0.699219 3.09375 L 44.738281 3.09375 L 44.738281 74.035156 L 0.699219 74.035156 Z M 0.699219 3.09375 " clip-rule="nonzero"/></clipPath><clipPath id="48ab2bd995"><path d="M 18.984375 73.816406 C 14.539062 72.992188 10.214844 70.742188 7.113281 67.640625 C 5.929688 66.457031 3.6875 63.5625 3.835938 63.414062 C 4.113281 63.136719 6.433594 62.902344 8.851562 62.902344 C 13.292969 62.902344 16.585938 63.605469 22.230469 65.769531 C 26.507812 67.410156 28.746094 67.882812 32.308594 67.890625 C 34.300781 67.898438 35.609375 67.789062 36.898438 67.507812 C 38.6875 67.117188 38.699219 67.117188 38.34375 67.519531 C 37.664062 68.292969 34.96875 70.335938 33.496094 71.191406 C 31.625 72.285156 28.667969 73.347656 26.382812 73.746094 C 24.445312 74.085938 20.617188 74.121094 18.984375 73.816406 Z M 33.679688 64.585938 C 36.691406 62.398438 38.515625 58.101562 37.890625 54.65625 C 37.261719 51.179688 35.894531 48.765625 31.207031 42.859375 C 27.359375 38.011719 26.472656 35.757812 26.441406 30.722656 C 26.433594 29.105469 26.398438 27.777344 26.367188 27.777344 C 26.011719 27.777344 22.996094 29.515625 21.867188 30.375 C 16.984375 34.082031 14.511719 40.53125 15.355469 47.378906 C 15.488281 48.445312 15.558594 49.359375 15.507812 49.402344 C 15.457031 49.445312 15.136719 49.058594 14.785156 48.527344 C 14.042969 47.40625 13.417969 45.601562 13.078125 43.589844 L 12.835938 42.15625 L 12.132812 42.96875 C 9.5 46.03125 7.238281 49.898438 6.707031 52.257812 C 6.414062 53.5625 6.339844 56.0625 6.546875 57.476562 L 6.710938 58.558594 L 5.722656 58.566406 C 5.179688 58.570312 4.089844 58.664062 3.304688 58.777344 C 2.277344 58.925781 1.832031 58.921875 1.730469 58.753906 C 1.652344 58.628906 1.378906 57.601562 1.121094 56.46875 C 0.457031 53.535156 0.59375 50.132812 1.476562 47.613281 C 2.648438 44.269531 4.402344 41.082031 9.484375 33.050781 C 13.296875 27.023438 14.726562 24.652344 16.335938 21.6875 C 19.738281 15.421875 21.632812 10.027344 22.507812 4.125 L 22.660156 3.09375 L 22.929688 4.917969 C 24.113281 12.796875 27.433594 20.105469 35.457031 32.503906 C 40.355469 40.0625 43 44.972656 43.988281 48.335938 C 44.921875 51.507812 44.722656 55.476562 43.441406 59.210938 C 42.648438 61.527344 41.460938 63.683594 40.785156 64.035156 C 39.621094 64.636719 36.8125 65.171875 34.808594 65.171875 L 32.867188 65.171875 Z M 33.679688 64.585938 " clip-rule="nonzero"/></clipPath><clipPath id="ad31fcc5c3"><path d="M 0.699219 0.09375 L 44.679688 0.09375 L 44.679688 71.035156 L 0.699219 71.035156 Z M 0.699219 0.09375 " clip-rule="nonzero"/></clipPath><clipPath id="d5166cbff5"><path d="M 18.984375 70.816406 C 14.539062 69.992188 10.214844 67.742188 7.113281 64.640625 C 5.929688 63.457031 3.6875 60.5625 3.835938 60.414062 C 4.113281 60.136719 6.433594 59.902344 8.851562 59.902344 C 13.292969 59.902344 16.585938 60.605469 22.230469 62.769531 C 26.507812 64.410156 28.746094 64.882812 32.308594 64.890625 C 34.300781 64.898438 35.609375 64.789062 36.898438 64.507812 C 38.6875 64.117188 38.699219 64.117188 38.34375 64.519531 C 37.664062 65.292969 34.96875 67.335938 33.496094 68.191406 C 31.625 69.285156 28.667969 70.347656 26.382812 70.746094 C 24.445312 71.085938 20.617188 71.121094 18.984375 70.816406 Z M 33.679688 61.585938 C 36.691406 59.398438 38.515625 55.101562 37.890625 51.65625 C 37.261719 48.179688 35.894531 45.765625 31.207031 39.859375 C 27.359375 35.011719 26.472656 32.757812 26.441406 27.722656 C 26.433594 26.105469 26.398438 24.777344 26.367188 24.777344 C 26.011719 24.777344 22.996094 26.515625 21.867188 27.375 C 16.984375 31.082031 14.511719 37.53125 15.355469 44.378906 C 15.488281 45.445312 15.558594 46.359375 15.507812 46.402344 C 15.457031 46.445312 15.136719 46.058594 14.785156 45.527344 C 14.042969 44.40625 13.417969 42.601562 13.078125 40.589844 L 12.835938 39.15625 L 12.132812 39.96875 C 9.5 43.03125 7.238281 46.898438 6.707031 49.257812 C 6.414062 50.5625 6.339844 53.0625 6.546875 54.476562 L 6.710938 55.558594 L 5.722656 55.566406 C 5.179688 55.570312 4.089844 55.664062 3.304688 55.777344 C 2.277344 55.925781 1.832031 55.921875 1.730469 55.753906 C 1.652344 55.628906 1.378906 54.601562 1.121094 53.46875 C 0.457031 50.535156 0.59375 47.132812 1.476562 44.613281 C 2.648438 41.269531 4.402344 38.082031 9.484375 30.050781 C 13.296875 24.023438 14.726562 21.652344 16.335938 18.6875 C 19.738281 12.421875 21.632812 7.027344 22.507812 1.125 L 22.660156 0.09375 L 22.929688 1.917969 C 24.113281 9.796875 27.433594 17.105469 35.457031 29.503906 C 40.355469 37.0625 43 41.972656 43.988281 45.335938 C 44.921875 48.507812 44.722656 52.476562 43.441406 56.210938 C 42.648438 58.527344 41.460938 60.683594 40.785156 61.035156 C 39.621094 61.636719 36.8125 62.171875 34.808594 62.171875 L 32.867188 62.171875 Z M 33.679688 61.585938 " clip-rule="nonzero"/></clipPath><clipPath id="a7ab65890e"><rect x="0" width="45" y="0" height="72"/></clipPath><clipPath id="39a51d67ea"><path d="M 51 0 L 365.320312 0 L 365.320312 69 L 51 69 Z M 51 0 " clip-rule="nonzero"/></clipPath><clipPath id="7cc1bea042"><path d="M 0.398438 14 L 22 14 L 22 53 L 0.398438 53 Z M 0.398438 14 " clip-rule="nonzero"/></clipPath><clipPath id="984c3cb1c7"><rect x="0" width="315" y="0" height="69"/></clipPath><clipPath id="ba1fcda9a4"><path d="M 167 60 L 364 60 L 364 74.640625 L 167 74.640625 Z M 167 60 " clip-rule="nonzero"/></clipPath><clipPath id="56962c9981"><path d="M 0.078125 11 L 1 11 L 1 12 L 0.078125 12 Z M 0.078125 11 " clip-rule="nonzero"/></clipPath><clipPath id="a6b9c525dd"><rect x="0" width="197" y="0" height="15"/></clipPath><clipPath id="0f4994019c"><path d="M 51 60 L 172 60 L 172 74.640625 L 51 74.640625 Z M 51 60 " clip-rule="nonzero"/></clipPath><clipPath id="a33b7bb46a"><rect x="0" width="121" y="0" height="15"/></clipPath><clipPath id="f84252ca4a"><rect x="0" width="366" y="0" height="75"/></clipPath></defs><g transform="matrix(1, 0, 0, 1, 5, -0.000000000000001893)"><g clip-path="url(#f84252ca4a)"><g clip-path="url(#f244c6b59d)"><g clip-path="url(#48ab2bd995)"><g transform="matrix(1, 0, 0, 1, 0, 3)"><g clip-path="url(#a7ab65890e)"><g clip-path="url(#ad31fcc5c3)"><g clip-path="url(#d5166cbff5)"><path fill="#7cc000" d="M 0.699219 0.09375 L 44.566406 0.09375 L 44.566406 71.035156 L 0.699219 71.035156 Z M 0.699219 0.09375 " fill-opacity="1" fill-rule="nonzero"/></g></g></g></g></g></g><g clip-path="url(#39a51d67ea)"><g transform="matrix(1, 0, 0, 1, 51, -0.000000000000001893)"><g clip-path="url(#984c3cb1c7)"><g clip-path="url(#7cc1bea042)"><g fill="#000000" fill-opacity="1"><g transform="translate(0.419745, 52.226642)"><g><path d="M 7.296875 -30.671875 L 0.578125 -30.671875 L 0.578125 -37.71875 L 21.4375 -37.71875 L 21.4375 -30.671875 L 14.5 -30.671875 L 14.5 0 L 7.296875 0 Z M 7.296875 -30.671875 "/></g></g></g></g><g fill="#000000" fill-opacity="1"><g transform="translate(22.476753, 52.226642)"><g><path d="M 10.5625 -38.65625 L 10.5625 -25.0625 C 11.957031 -26.25 13.3125 -27.140625 14.625 -27.734375 C 15.9375 -28.328125 17.332031 -28.625 18.8125 -28.625 C 20.59375 -28.625 22.207031 -28.238281 23.65625 -27.46875 C 25.113281 -26.695312 26.257812 -25.539062 27.09375 -24 C 27.9375 -22.46875 28.359375 -20.613281 28.359375 -18.4375 L 28.359375 0 L 21.375 0 L 21.375 -13.1875 C 21.375 -15.25 21.25 -16.921875 21 -18.203125 C 20.757812 -19.484375 20.296875 -20.472656 19.609375 -21.171875 C 18.929688 -21.867188 17.925781 -22.21875 16.59375 -22.21875 C 15.332031 -22.21875 14.25 -21.859375 13.34375 -21.140625 C 12.4375 -20.421875 11.742188 -19.46875 11.265625 -18.28125 C 10.796875 -17.09375 10.5625 -15.796875 10.5625 -14.390625 L 10.5625 0 L 3.578125 0 L 3.578125 -38.65625 Z M 10.5625 -38.65625 "/></g></g></g><g fill="#000000" fill-opacity="1"><g transform="translate(54.039278, 52.226642)"><g><path d="M 16.703125 0.734375 C 13.796875 0.734375 11.238281 0.0859375 9.03125 -1.203125 C 6.820312 -2.503906 5.113281 -4.273438 3.90625 -6.515625 C 2.695312 -8.753906 2.09375 -11.238281 2.09375 -13.96875 C 2.09375 -16.53125 2.6875 -18.929688 3.875 -21.171875 C 5.070312 -23.410156 6.765625 -25.210938 8.953125 -26.578125 C 11.140625 -27.941406 13.6875 -28.625 16.59375 -28.625 C 19.5 -28.625 22.070312 -27.976562 24.3125 -26.6875 C 26.5625 -25.394531 28.304688 -23.597656 29.546875 -21.296875 C 30.785156 -19.003906 31.40625 -16.40625 31.40625 -13.5 C 31.40625 -12.875 31.390625 -12.347656 31.359375 -11.921875 L 8.875 -11.921875 C 9.226562 -9.890625 10.113281 -8.304688 11.53125 -7.171875 C 12.945312 -6.035156 14.671875 -5.46875 16.703125 -5.46875 C 18.273438 -5.46875 19.648438 -5.710938 20.828125 -6.203125 C 22.003906 -6.691406 23.222656 -7.476562 24.484375 -8.5625 L 29.46875 -4.40625 C 26.28125 -0.976562 22.023438 0.734375 16.703125 0.734375 Z M 24.375 -17.4375 C 23.914062 -19.050781 22.992188 -20.328125 21.609375 -21.265625 C 20.234375 -22.210938 18.597656 -22.6875 16.703125 -22.6875 C 14.953125 -22.6875 13.425781 -22.25 12.125 -21.375 C 10.832031 -20.5 9.851562 -19.1875 9.1875 -17.4375 Z M 24.375 -17.4375 "/></g></g></g><g fill="#000000" fill-opacity="1"><g transform="translate(87.492395, 52.226642)"><g><path d="M 9.5625 -27.890625 L 9.5625 -24.375 C 10.1875 -25.769531 11.023438 -26.828125 12.078125 -27.546875 C 13.128906 -28.265625 14.25 -28.625 15.4375 -28.625 C 16.5625 -28.625 17.578125 -28.378906 18.484375 -27.890625 L 16.34375 -21.90625 C 15.570312 -22.289062 14.882812 -22.484375 14.28125 -22.484375 C 13.132812 -22.484375 12.21875 -21.816406 11.53125 -20.484375 C 10.84375 -19.148438 10.5 -17.15625 10.5 -14.5 L 10.5 0 L 3.515625 0 L 3.515625 -27.890625 Z M 9.5625 -27.890625 "/></g></g></g><g fill="#000000" fill-opacity="1"><g transform="translate(105.925748, 52.226642)"><g><path d="M 10.5 -27.890625 L 10.5 -24.6875 C 11.695312 -25.988281 13.035156 -26.96875 14.515625 -27.625 C 16.003906 -28.289062 17.570312 -28.625 19.21875 -28.625 C 21.007812 -28.625 22.601562 -28.203125 24 -27.359375 C 25.40625 -26.523438 26.53125 -25.285156 27.375 -23.640625 C 28.738281 -25.359375 30.128906 -26.617188 31.546875 -27.421875 C 32.960938 -28.222656 34.6875 -28.625 36.71875 -28.625 C 39.800781 -28.625 42.15625 -27.6875 43.78125 -25.8125 C 45.414062 -23.945312 46.234375 -21.367188 46.234375 -18.078125 L 46.234375 0 L 39.234375 0 L 39.234375 -15.390625 C 39.234375 -19.941406 37.640625 -22.21875 34.453125 -22.21875 C 32.640625 -22.21875 31.179688 -21.5 30.078125 -20.0625 C 28.972656 -18.625 28.421875 -16.523438 28.421875 -13.765625 L 28.421875 0 L 21.4375 0 L 21.4375 -13.5 C 21.4375 -16.40625 21.078125 -18.582031 20.359375 -20.03125 C 19.640625 -21.488281 18.351562 -22.21875 16.5 -22.21875 C 15.300781 -22.21875 14.253906 -21.894531 13.359375 -21.25 C 12.472656 -20.601562 11.773438 -19.640625 11.265625 -18.359375 C 10.753906 -17.078125 10.5 -15.507812 10.5 -13.65625 L 10.5 0 L 3.515625 0 L 3.515625 -27.890625 Z M 10.5 -27.890625 "/></g></g></g><g fill="#000000" fill-opacity="1"><g transform="translate(155.343944, 52.226642)"><g><path d="M 16.75 0.734375 C 14.019531 0.734375 11.535156 0.078125 9.296875 -1.234375 C 7.054688 -2.546875 5.296875 -4.332031 4.015625 -6.59375 C 2.734375 -8.851562 2.09375 -11.3125 2.09375 -13.96875 C 2.09375 -16.664062 2.757812 -19.132812 4.09375 -21.375 C 5.425781 -23.625 7.210938 -25.394531 9.453125 -26.6875 C 11.691406 -27.976562 14.125 -28.625 16.75 -28.625 C 19.382812 -28.625 21.820312 -27.976562 24.0625 -26.6875 C 26.300781 -25.394531 28.082031 -23.625 29.40625 -21.375 C 30.738281 -19.132812 31.40625 -16.664062 31.40625 -13.96875 C 31.40625 -11.3125 30.765625 -8.851562 29.484375 -6.59375 C 28.210938 -4.332031 26.457031 -2.546875 24.21875 -1.234375 C 21.976562 0.078125 19.488281 0.734375 16.75 0.734375 Z M 16.75 -5.890625 C 18.15625 -5.890625 19.441406 -6.21875 20.609375 -6.875 C 21.785156 -7.539062 22.707031 -8.488281 23.375 -9.71875 C 24.039062 -10.945312 24.375 -12.347656 24.375 -13.921875 C 24.375 -15.492188 24.050781 -16.894531 23.40625 -18.125 C 22.757812 -19.351562 21.859375 -20.304688 20.703125 -20.984375 C 19.546875 -21.671875 18.226562 -22.015625 16.75 -22.015625 C 15.28125 -22.015625 13.96875 -21.671875 12.8125 -20.984375 C 11.65625 -20.304688 10.753906 -19.351562 10.109375 -18.125 C 9.460938 -16.894531 9.140625 -15.492188 9.140625 -13.921875 C 9.140625 -12.347656 9.472656 -10.945312 10.140625 -9.71875 C 10.804688 -8.488281 11.722656 -7.539062 12.890625 -6.875 C 14.066406 -6.21875 15.351562 -5.890625 16.75 -5.890625 Z M 16.75 -5.890625 "/></g></g></g><g fill="#7cc000" fill-opacity="1"><g transform="translate(188.858589, 52.226642)"><g><path d="M 13.703125 0.953125 C 10.972656 0.953125 8.617188 0.28125 6.640625 -1.0625 C 4.660156 -2.414062 2.972656 -4.476562 1.578125 -7.25 L 7.609375 -10.875 C 8.492188 -9.226562 9.441406 -7.992188 10.453125 -7.171875 C 11.472656 -6.347656 12.613281 -5.9375 13.875 -5.9375 C 14.675781 -5.9375 15.410156 -6.09375 16.078125 -6.40625 C 16.742188 -6.71875 17.269531 -7.144531 17.65625 -7.6875 C 18.039062 -8.238281 18.234375 -8.828125 18.234375 -9.453125 C 18.234375 -10.117188 18.097656 -10.710938 17.828125 -11.234375 C 17.566406 -11.765625 17.191406 -12.28125 16.703125 -12.78125 C 16.210938 -13.289062 15.476562 -13.953125 14.5 -14.765625 C 11.625 -17.179688 9.46875 -19.070312 8.03125 -20.4375 C 6.601562 -21.800781 5.46875 -23.191406 4.625 -24.609375 C 3.78125 -26.023438 3.359375 -27.539062 3.359375 -29.15625 C 3.359375 -30.90625 3.820312 -32.503906 4.75 -33.953125 C 5.675781 -35.410156 6.9375 -36.554688 8.53125 -37.390625 C 10.125 -38.234375 11.847656 -38.65625 13.703125 -38.65625 C 15.910156 -38.65625 17.863281 -38.140625 19.5625 -37.109375 C 21.257812 -36.078125 22.953125 -34.582031 24.640625 -32.625 L 19.4375 -28.203125 C 18.382812 -29.398438 17.394531 -30.296875 16.46875 -30.890625 C 15.539062 -31.484375 14.585938 -31.78125 13.609375 -31.78125 C 12.660156 -31.78125 11.890625 -31.535156 11.296875 -31.046875 C 10.703125 -30.554688 10.40625 -29.925781 10.40625 -29.15625 C 10.40625 -28.59375 10.585938 -28.046875 10.953125 -27.515625 C 11.316406 -26.992188 11.894531 -26.382812 12.6875 -25.6875 C 13.476562 -24.988281 14.765625 -23.921875 16.546875 -22.484375 C 18.679688 -20.765625 20.316406 -19.34375 21.453125 -18.21875 C 22.597656 -17.101562 23.519531 -15.851562 24.21875 -14.46875 C 24.914062 -13.082031 25.265625 -11.515625 25.265625 -9.765625 C 25.265625 -7.703125 24.773438 -5.851562 23.796875 -4.21875 C 22.816406 -2.59375 21.453125 -1.320312 19.703125 -0.40625 C 17.953125 0.5 15.953125 0.953125 13.703125 0.953125 Z M 13.703125 0.953125 "/></g></g></g><g fill="#7cc000" fill-opacity="1"><g transform="translate(216.167255, 52.226642)"><g><path d="M 15.390625 0.734375 C 13.046875 0.734375 10.847656 0.101562 8.796875 -1.15625 C 6.742188 -2.414062 5.113281 -4.164062 3.90625 -6.40625 C 2.695312 -8.644531 2.09375 -11.148438 2.09375 -13.921875 C 2.09375 -16.753906 2.679688 -19.289062 3.859375 -21.53125 C 5.035156 -23.78125 6.617188 -25.523438 8.609375 -26.765625 C 10.609375 -28.003906 12.816406 -28.625 15.234375 -28.625 C 18.554688 -28.625 21.476562 -27.363281 24 -24.84375 L 24 -27.890625 L 31 -27.890625 L 31 0 L 24 0 L 24 -2.9375 C 22.738281 -1.71875 21.414062 -0.800781 20.03125 -0.1875 C 18.65625 0.425781 17.109375 0.734375 15.390625 0.734375 Z M 16.65625 -5.671875 C 18.09375 -5.671875 19.394531 -6.007812 20.5625 -6.6875 C 21.738281 -7.375 22.660156 -8.359375 23.328125 -9.640625 C 23.992188 -10.921875 24.328125 -12.382812 24.328125 -14.03125 C 24.328125 -15.632812 23.992188 -17.054688 23.328125 -18.296875 C 22.660156 -19.546875 21.75 -20.507812 20.59375 -21.1875 C 19.4375 -21.875 18.125 -22.21875 16.65625 -22.21875 C 15.144531 -22.21875 13.820312 -21.847656 12.6875 -21.109375 C 11.550781 -20.378906 10.675781 -19.390625 10.0625 -18.140625 C 9.445312 -16.898438 9.140625 -15.507812 9.140625 -13.96875 C 9.140625 -12.394531 9.460938 -10.976562 10.109375 -9.71875 C 10.753906 -8.457031 11.644531 -7.46875 12.78125 -6.75 C 13.925781 -6.03125 15.21875 -5.671875 16.65625 -5.671875 Z M 16.65625 -5.671875 "/></g></g></g><g fill="#7cc000" fill-opacity="1"><g transform="translate(250.670706, 52.226642)"><g><path d="M 10.5 -27.890625 L 10.5 -25.0625 C 11.9375 -26.25 13.300781 -27.140625 14.59375 -27.734375 C 15.894531 -28.328125 17.28125 -28.625 18.75 -28.625 C 20.5 -28.625 22.097656 -28.238281 23.546875 -27.46875 C 25.003906 -26.695312 26.160156 -25.582031 27.015625 -24.125 C 27.878906 -22.675781 28.3125 -20.988281 28.3125 -19.0625 L 28.3125 0 L 21.328125 0 L 21.328125 -13.1875 C 21.328125 -15.289062 21.222656 -16.972656 21.015625 -18.234375 C 20.804688 -19.492188 20.359375 -20.472656 19.671875 -21.171875 C 18.992188 -21.867188 17.96875 -22.21875 16.59375 -22.21875 C 15.4375 -22.21875 14.394531 -21.894531 13.46875 -21.25 C 12.539062 -20.601562 11.8125 -19.648438 11.28125 -18.390625 C 10.757812 -17.128906 10.5 -15.585938 10.5 -13.765625 L 10.5 0 L 3.515625 0 L 3.515625 -27.890625 Z M 10.5 -27.890625 "/></g></g></g><g fill="#7cc000" fill-opacity="1"><g transform="translate(282.180708, 52.226642)"><g><path d="M 12.5625 -31.671875 L 19.015625 -31.671875 L 19.015625 -22.0625 L 28.578125 -22.0625 L 28.578125 -15.65625 L 19.015625 -15.65625 L 19.015625 -6.046875 L 12.5625 -6.046875 L 12.5625 -15.65625 L 2.9375 -15.65625 L 2.9375 -22.0625 L 12.5625 -22.0625 Z M 12.5625 -31.671875 "/></g></g></g></g></g></g><g clip-path="url(#ba1fcda9a4)"><g transform="matrix(1, 0, 0, 1, 167, 60)"><g clip-path="url(#a6b9c525dd)"><g clip-path="url(#56962c9981)"><g fill="#000000" fill-opacity="1"><g transform="translate(0.271698, 11.094048)"><g/></g></g></g><g fill="#000000" fill-opacity="1"><g transform="translate(4.57106, 11.094048)"><g><path d="M 1.125 -8 L 2.03125 -8 L 2.03125 -4.453125 L 6.65625 -4.453125 L 6.65625 -8 L 7.5625 -8 L 7.5625 0 L 6.65625 0 L 6.65625 -3.609375 L 2.03125 -3.609375 L 2.03125 0 L 1.125 0 Z M 1.125 -8 "/></g></g></g><g fill="#000000" fill-opacity="1"><g transform="translate(14.122688, 11.094048)"><g><path d="M 1.125 -8 L 6.921875 -8 L 6.921875 -7.1875 L 2.03125 -7.1875 L 2.03125 -4.453125 L 6.40625 -4.453125 L 6.40625 -3.625 L 2.03125 -3.625 L 2.03125 -0.828125 L 6.984375 -0.828125 L 6.984375 0 L 1.125 0 Z M 1.125 -8 "/></g></g></g><g fill="#000000" fill-opacity="1"><g transform="translate(22.644837, 11.094048)"><g><path d="M 1.21875 -8 L 2.109375 -8 L 2.109375 0 L 1.21875 0 Z M 1.21875 -8 "/></g></g></g><g fill="#000000" fill-opacity="1"><g transform="translate(26.831763, 11.094048)"><g><path d="M 0.765625 -0.609375 L 5.953125 -7.1875 L 0.9375 -7.1875 L 0.9375 -8 L 7.1875 -8 L 7.1875 -7.40625 L 1.984375 -0.8125 L 7.1875 -0.8125 L 7.1875 0 L 0.765625 0 Z M 0.765625 -0.609375 "/></g></g></g><g fill="#000000" fill-opacity="1"><g transform="translate(35.616998, 11.094048)"><g><path d="M 4.328125 0.125 C 3.835938 0.125 3.390625 0.0507812 2.984375 -0.09375 C 2.578125 -0.238281 2.222656 -0.457031 1.921875 -0.75 C 1.628906 -1.050781 1.398438 -1.414062 1.234375 -1.84375 C 1.078125 -2.28125 1 -2.78125 1 -3.34375 L 1 -8 L 1.90625 -8 L 1.90625 -3.40625 C 1.90625 -2.539062 2.117188 -1.875 2.546875 -1.40625 C 2.984375 -0.9375 3.585938 -0.703125 4.359375 -0.703125 C 5.097656 -0.703125 5.679688 -0.921875 6.109375 -1.359375 C 6.546875 -1.804688 6.765625 -2.46875 6.765625 -3.34375 L 6.765625 -8 L 7.671875 -8 L 7.671875 -3.421875 C 7.671875 -2.835938 7.585938 -2.320312 7.421875 -1.875 C 7.265625 -1.4375 7.039062 -1.066406 6.75 -0.765625 C 6.457031 -0.460938 6.109375 -0.238281 5.703125 -0.09375 C 5.296875 0.0507812 4.835938 0.125 4.328125 0.125 Z M 4.328125 0.125 "/></g></g></g><g fill="#000000" fill-opacity="1"><g transform="translate(45.157186, 11.094048)"><g><path d="M 1.125 -8 L 1.984375 -8 L 7.015625 -1.59375 L 7.015625 -8 L 7.90625 -8 L 7.90625 0 L 7.1875 0 L 2.015625 -6.5625 L 2.015625 0 L 1.125 0 Z M 1.125 -8 "/></g></g></g><g fill="#000000" fill-opacity="1"><g transform="translate(55.051968, 11.094048)"><g><path d="M 4.84375 0.140625 C 4.21875 0.140625 3.65625 0.0351562 3.15625 -0.171875 C 2.65625 -0.390625 2.226562 -0.6875 1.875 -1.0625 C 1.519531 -1.4375 1.25 -1.875 1.0625 -2.375 C 0.875 -2.875 0.78125 -3.410156 0.78125 -3.984375 L 0.78125 -4 C 0.78125 -4.550781 0.875 -5.078125 1.0625 -5.578125 C 1.257812 -6.078125 1.53125 -6.515625 1.875 -6.890625 C 2.226562 -7.273438 2.648438 -7.578125 3.140625 -7.796875 C 3.640625 -8.023438 4.191406 -8.140625 4.796875 -8.140625 C 5.128906 -8.140625 5.429688 -8.113281 5.703125 -8.0625 C 5.984375 -8.019531 6.242188 -7.953125 6.484375 -7.859375 C 6.722656 -7.773438 6.945312 -7.664062 7.15625 -7.53125 C 7.375 -7.394531 7.582031 -7.242188 7.78125 -7.078125 L 7.1875 -6.390625 C 7.039062 -6.523438 6.882812 -6.648438 6.71875 -6.765625 C 6.550781 -6.878906 6.367188 -6.972656 6.171875 -7.046875 C 5.972656 -7.128906 5.757812 -7.191406 5.53125 -7.234375 C 5.300781 -7.285156 5.046875 -7.3125 4.765625 -7.3125 C 4.316406 -7.3125 3.90625 -7.222656 3.53125 -7.046875 C 3.15625 -6.867188 2.832031 -6.628906 2.5625 -6.328125 C 2.300781 -6.035156 2.09375 -5.6875 1.9375 -5.28125 C 1.789062 -4.882812 1.71875 -4.46875 1.71875 -4.03125 L 1.71875 -4 C 1.71875 -3.519531 1.789062 -3.078125 1.9375 -2.671875 C 2.082031 -2.265625 2.289062 -1.910156 2.5625 -1.609375 C 2.84375 -1.316406 3.175781 -1.085938 3.5625 -0.921875 C 3.957031 -0.753906 4.398438 -0.671875 4.890625 -0.671875 C 5.335938 -0.671875 5.765625 -0.75 6.171875 -0.90625 C 6.578125 -1.0625 6.914062 -1.25 7.1875 -1.46875 L 7.1875 -3.46875 L 4.765625 -3.46875 L 4.765625 -4.28125 L 8.0625 -4.28125 L 8.0625 -1.09375 C 7.6875 -0.75 7.226562 -0.457031 6.6875 -0.21875 C 6.144531 0.0195312 5.53125 0.140625 4.84375 0.140625 Z M 4.84375 0.140625 "/></g></g></g><g fill="#000000" fill-opacity="1"><g transform="translate(64.878122, 11.094048)"><g/></g></g><g fill="#000000" fill-opacity="1"><g transform="translate(69.167996, 11.094048)"><g><path d="M 1.359375 -9.125 L 2.109375 -9.125 L 2.109375 1.46875 L 1.359375 1.46875 Z M 1.359375 -9.125 "/></g></g></g><g fill="#000000" fill-opacity="1"><g transform="translate(73.492178, 11.094048)"><g/></g></g><g fill="#000000" fill-opacity="1"><g transform="translate(77.782053, 11.094048)"><g><path d="M 3.875 0.109375 C 3.238281 0.109375 2.65625 0.00390625 2.125 -0.203125 C 1.59375 -0.410156 1.085938 -0.734375 0.609375 -1.171875 L 1.171875 -1.828125 C 1.585938 -1.453125 2.007812 -1.171875 2.4375 -0.984375 C 2.863281 -0.796875 3.351562 -0.703125 3.90625 -0.703125 C 4.445312 -0.703125 4.878906 -0.828125 5.203125 -1.078125 C 5.535156 -1.335938 5.703125 -1.664062 5.703125 -2.0625 L 5.703125 -2.078125 C 5.703125 -2.265625 5.671875 -2.429688 5.609375 -2.578125 C 5.546875 -2.722656 5.4375 -2.859375 5.28125 -2.984375 C 5.132812 -3.109375 4.925781 -3.21875 4.65625 -3.3125 C 4.382812 -3.414062 4.035156 -3.515625 3.609375 -3.609375 C 3.148438 -3.703125 2.75 -3.8125 2.40625 -3.9375 C 2.070312 -4.070312 1.796875 -4.226562 1.578125 -4.40625 C 1.359375 -4.59375 1.191406 -4.804688 1.078125 -5.046875 C 0.972656 -5.296875 0.921875 -5.582031 0.921875 -5.90625 L 0.921875 -5.9375 C 0.921875 -6.25 0.984375 -6.535156 1.109375 -6.796875 C 1.242188 -7.066406 1.429688 -7.296875 1.671875 -7.484375 C 1.910156 -7.679688 2.1875 -7.835938 2.5 -7.953125 C 2.820312 -8.066406 3.175781 -8.125 3.5625 -8.125 C 4.144531 -8.125 4.65625 -8.039062 5.09375 -7.875 C 5.53125 -7.707031 5.957031 -7.460938 6.375 -7.140625 L 5.84375 -6.4375 C 5.46875 -6.738281 5.09375 -6.957031 4.71875 -7.09375 C 4.34375 -7.238281 3.945312 -7.3125 3.53125 -7.3125 C 3.007812 -7.3125 2.59375 -7.1875 2.28125 -6.9375 C 1.976562 -6.6875 1.828125 -6.378906 1.828125 -6.015625 L 1.828125 -6 C 1.828125 -5.800781 1.859375 -5.628906 1.921875 -5.484375 C 1.984375 -5.335938 2.09375 -5.203125 2.25 -5.078125 C 2.414062 -4.953125 2.640625 -4.835938 2.921875 -4.734375 C 3.203125 -4.628906 3.5625 -4.53125 4 -4.4375 C 4.894531 -4.238281 5.550781 -3.960938 5.96875 -3.609375 C 6.394531 -3.265625 6.609375 -2.785156 6.609375 -2.171875 L 6.609375 -2.15625 C 6.609375 -1.8125 6.539062 -1.5 6.40625 -1.21875 C 6.269531 -0.9375 6.082031 -0.695312 5.84375 -0.5 C 5.601562 -0.300781 5.3125 -0.148438 4.96875 -0.046875 C 4.632812 0.0546875 4.269531 0.109375 3.875 0.109375 Z M 3.875 0.109375 "/></g></g></g><g fill="#000000" fill-opacity="1"><g transform="translate(85.961047, 11.094048)"><g><path d="M 4.09375 -8.0625 L 4.9375 -8.0625 L 8.59375 0 L 7.625 0 L 6.671875 -2.109375 L 2.328125 -2.109375 L 1.375 0 L 0.453125 0 Z M 6.328125 -2.921875 L 4.5 -7.015625 L 2.671875 -2.921875 Z M 6.328125 -2.921875 "/></g></g></g><g fill="#000000" fill-opacity="1"><g transform="translate(95.85583, 11.094048)"><g><path d="M 1.125 -8 L 1.984375 -8 L 7.015625 -1.59375 L 7.015625 -8 L 7.90625 -8 L 7.90625 0 L 7.1875 0 L 2.015625 -6.5625 L 2.015625 0 L 1.125 0 Z M 1.125 -8 "/></g></g></g><g fill="#000000" fill-opacity="1"><g transform="translate(105.750612, 11.094048)"><g><path d="M 1.21875 -8 L 2.109375 -8 L 2.109375 0 L 1.21875 0 Z M 1.21875 -8 "/></g></g></g><g fill="#000000" fill-opacity="1"><g transform="translate(109.937537, 11.094048)"><g><path d="M 3.21875 -7.171875 L 0.515625 -7.171875 L 0.515625 -8 L 6.8125 -8 L 6.8125 -7.171875 L 4.125 -7.171875 L 4.125 0 L 3.21875 0 Z M 3.21875 -7.171875 "/></g></g></g><g fill="#000000" fill-opacity="1"><g transform="translate(118.127972, 11.094048)"><g><path d="M 4.09375 -8.0625 L 4.9375 -8.0625 L 8.59375 0 L 7.625 0 L 6.671875 -2.109375 L 2.328125 -2.109375 L 1.375 0 L 0.453125 0 Z M 6.328125 -2.921875 L 4.5 -7.015625 L 2.671875 -2.921875 Z M 5.046875 -9.859375 L 6.109375 -9.859375 L 6.109375 -8.828125 L 5.046875 -8.828125 Z M 2.921875 -9.859375 L 3.984375 -9.859375 L 3.984375 -8.828125 L 2.921875 -8.828125 Z M 2.921875 -9.859375 "/></g></g></g><g fill="#000000" fill-opacity="1"><g transform="translate(128.022754, 11.094048)"><g><path d="M 1.125 -8 L 4.578125 -8 C 5.066406 -8 5.503906 -7.925781 5.890625 -7.78125 C 6.273438 -7.644531 6.59375 -7.453125 6.84375 -7.203125 C 7.039062 -7.003906 7.191406 -6.769531 7.296875 -6.5 C 7.410156 -6.238281 7.46875 -5.945312 7.46875 -5.625 L 7.46875 -5.609375 C 7.46875 -5.265625 7.410156 -4.960938 7.296875 -4.703125 C 7.191406 -4.441406 7.039062 -4.210938 6.84375 -4.015625 C 6.65625 -3.828125 6.425781 -3.664062 6.15625 -3.53125 C 5.894531 -3.40625 5.609375 -3.316406 5.296875 -3.265625 L 7.75 0 L 6.640625 0 L 4.328125 -3.109375 L 2.03125 -3.109375 L 2.03125 0 L 1.125 0 Z M 4.5 -3.921875 C 4.789062 -3.921875 5.0625 -3.957031 5.3125 -4.03125 C 5.570312 -4.113281 5.789062 -4.222656 5.96875 -4.359375 C 6.15625 -4.503906 6.296875 -4.675781 6.390625 -4.875 C 6.492188 -5.082031 6.546875 -5.3125 6.546875 -5.5625 L 6.546875 -5.59375 C 6.546875 -6.09375 6.367188 -6.476562 6.015625 -6.75 C 5.660156 -7.03125 5.15625 -7.171875 4.5 -7.171875 L 2.03125 -7.171875 L 2.03125 -3.921875 Z M 4.5 -3.921875 "/></g></g></g><g fill="#000000" fill-opacity="1"><g transform="translate(137.151158, 11.094048)"><g/></g></g><g fill="#000000" fill-opacity="1"><g transform="translate(141.441032, 11.094048)"><g><path d="M 1.359375 -9.125 L 2.109375 -9.125 L 2.109375 1.46875 L 1.359375 1.46875 Z M 1.359375 -9.125 "/></g></g></g><g fill="#000000" fill-opacity="1"><g transform="translate(145.765214, 11.094048)"><g/></g></g><g fill="#000000" fill-opacity="1"><g transform="translate(150.055089, 11.094048)"><g><path d="M 3.875 0.109375 C 3.238281 0.109375 2.65625 0.00390625 2.125 -0.203125 C 1.59375 -0.410156 1.085938 -0.734375 0.609375 -1.171875 L 1.171875 -1.828125 C 1.585938 -1.453125 2.007812 -1.171875 2.4375 -0.984375 C 2.863281 -0.796875 3.351562 -0.703125 3.90625 -0.703125 C 4.445312 -0.703125 4.878906 -0.828125 5.203125 -1.078125 C 5.535156 -1.335938 5.703125 -1.664062 5.703125 -2.0625 L 5.703125 -2.078125 C 5.703125 -2.265625 5.671875 -2.429688 5.609375 -2.578125 C 5.546875 -2.722656 5.4375 -2.859375 5.28125 -2.984375 C 5.132812 -3.109375 4.925781 -3.21875 4.65625 -3.3125 C 4.382812 -3.414062 4.035156 -3.515625 3.609375 -3.609375 C 3.148438 -3.703125 2.75 -3.8125 2.40625 -3.9375 C 2.070312 -4.070312 1.796875 -4.226562 1.578125 -4.40625 C 1.359375 -4.59375 1.191406 -4.804688 1.078125 -5.046875 C 0.972656 -5.296875 0.921875 -5.582031 0.921875 -5.90625 L 0.921875 -5.9375 C 0.921875 -6.25 0.984375 -6.535156 1.109375 -6.796875 C 1.242188 -7.066406 1.429688 -7.296875 1.671875 -7.484375 C 1.910156 -7.679688 2.1875 -7.835938 2.5 -7.953125 C 2.820312 -8.066406 3.175781 -8.125 3.5625 -8.125 C 4.144531 -8.125 4.65625 -8.039062 5.09375 -7.875 C 5.53125 -7.707031 5.957031 -7.460938 6.375 -7.140625 L 5.84375 -6.4375 C 5.46875 -6.738281 5.09375 -6.957031 4.71875 -7.09375 C 4.34375 -7.238281 3.945312 -7.3125 3.53125 -7.3125 C 3.007812 -7.3125 2.59375 -7.1875 2.28125 -6.9375 C 1.976562 -6.6875 1.828125 -6.378906 1.828125 -6.015625 L 1.828125 -6 C 1.828125 -5.800781 1.859375 -5.628906 1.921875 -5.484375 C 1.984375 -5.335938 2.09375 -5.203125 2.25 -5.078125 C 2.414062 -4.953125 2.640625 -4.835938 2.921875 -4.734375 C 3.203125 -4.628906 3.5625 -4.53125 4 -4.4375 C 4.894531 -4.238281 5.550781 -3.960938 5.96875 -3.609375 C 6.394531 -3.265625 6.609375 -2.785156 6.609375 -2.171875 L 6.609375 -2.15625 C 6.609375 -1.8125 6.539062 -1.5 6.40625 -1.21875 C 6.269531 -0.9375 6.082031 -0.695312 5.84375 -0.5 C 5.601562 -0.300781 5.3125 -0.148438 4.96875 -0.046875 C 4.632812 0.0546875 4.269531 0.109375 3.875 0.109375 Z M 3.875 0.109375 "/></g></g></g><g fill="#000000" fill-opacity="1"><g transform="translate(158.234083, 11.094048)"><g><path d="M 4.84375 0.140625 C 4.238281 0.140625 3.6875 0.03125 3.1875 -0.1875 C 2.6875 -0.414062 2.253906 -0.71875 1.890625 -1.09375 C 1.535156 -1.46875 1.257812 -1.90625 1.0625 -2.40625 C 0.875 -2.90625 0.78125 -3.429688 0.78125 -3.984375 L 0.78125 -4 C 0.78125 -4.550781 0.878906 -5.078125 1.078125 -5.578125 C 1.273438 -6.085938 1.550781 -6.53125 1.90625 -6.90625 C 2.269531 -7.28125 2.703125 -7.578125 3.203125 -7.796875 C 3.703125 -8.023438 4.257812 -8.140625 4.875 -8.140625 C 5.476562 -8.140625 6.03125 -8.03125 6.53125 -7.8125 C 7.03125 -7.59375 7.457031 -7.289062 7.8125 -6.90625 C 8.175781 -6.53125 8.453125 -6.09375 8.640625 -5.59375 C 8.835938 -5.09375 8.9375 -4.570312 8.9375 -4.03125 L 8.9375 -4 C 8.9375 -3.445312 8.835938 -2.921875 8.640625 -2.421875 C 8.441406 -1.921875 8.164062 -1.476562 7.8125 -1.09375 C 7.457031 -0.71875 7.023438 -0.414062 6.515625 -0.1875 C 6.015625 0.03125 5.457031 0.140625 4.84375 0.140625 Z M 4.875 -0.703125 C 5.332031 -0.703125 5.753906 -0.785156 6.140625 -0.953125 C 6.523438 -1.128906 6.851562 -1.363281 7.125 -1.65625 C 7.394531 -1.957031 7.609375 -2.304688 7.765625 -2.703125 C 7.921875 -3.097656 8 -3.523438 8 -3.984375 L 8 -4 C 8 -4.457031 7.921875 -4.882812 7.765625 -5.28125 C 7.609375 -5.6875 7.390625 -6.035156 7.109375 -6.328125 C 6.828125 -6.628906 6.492188 -6.867188 6.109375 -7.046875 C 5.722656 -7.222656 5.300781 -7.3125 4.84375 -7.3125 C 4.382812 -7.3125 3.960938 -7.222656 3.578125 -7.046875 C 3.203125 -6.878906 2.875 -6.644531 2.59375 -6.34375 C 2.320312 -6.050781 2.109375 -5.707031 1.953125 -5.3125 C 1.796875 -4.914062 1.71875 -4.488281 1.71875 -4.03125 L 1.71875 -4 C 1.71875 -3.539062 1.796875 -3.109375 1.953125 -2.703125 C 2.109375 -2.304688 2.328125 -1.957031 2.609375 -1.65625 C 2.890625 -1.363281 3.222656 -1.128906 3.609375 -0.953125 C 3.992188 -0.785156 4.414062 -0.703125 4.875 -0.703125 Z M 4.875 -0.703125 "/></g></g></g><g fill="#000000" fill-opacity="1"><g transform="translate(168.815188, 11.094048)"><g><path d="M 1.125 -8 L 2.03125 -8 L 2.03125 -0.828125 L 6.546875 -0.828125 L 6.546875 0 L 1.125 0 Z M 1.125 -8 "/></g></g></g><g fill="#000000" fill-opacity="1"><g transform="translate(176.708216, 11.094048)"><g><path d="M 4.09375 -8.0625 L 4.9375 -8.0625 L 8.59375 0 L 7.625 0 L 6.671875 -2.109375 L 2.328125 -2.109375 L 1.375 0 L 0.453125 0 Z M 6.328125 -2.921875 L 4.5 -7.015625 L 2.671875 -2.921875 Z M 6.328125 -2.921875 "/></g></g></g><g fill="#000000" fill-opacity="1"><g transform="translate(186.602999, 11.094048)"><g><path d="M 1.125 -8 L 4.578125 -8 C 5.066406 -8 5.503906 -7.925781 5.890625 -7.78125 C 6.273438 -7.644531 6.59375 -7.453125 6.84375 -7.203125 C 7.039062 -7.003906 7.191406 -6.769531 7.296875 -6.5 C 7.410156 -6.238281 7.46875 -5.945312 7.46875 -5.625 L 7.46875 -5.609375 C 7.46875 -5.265625 7.410156 -4.960938 7.296875 -4.703125 C 7.191406 -4.441406 7.039062 -4.210938 6.84375 -4.015625 C 6.65625 -3.828125 6.425781 -3.664062 6.15625 -3.53125 C 5.894531 -3.40625 5.609375 -3.316406 5.296875 -3.265625 L 7.75 0 L 6.640625 0 L 4.328125 -3.109375 L 2.03125 -3.109375 L 2.03125 0 L 1.125 0 Z M 4.5 -3.921875 C 4.789062 -3.921875 5.0625 -3.957031 5.3125 -4.03125 C 5.570312 -4.113281 5.789062 -4.222656 5.96875 -4.359375 C 6.15625 -4.503906 6.296875 -4.675781 6.390625 -4.875 C 6.492188 -5.082031 6.546875 -5.3125 6.546875 -5.5625 L 6.546875 -5.59375 C 6.546875 -6.09375 6.367188 -6.476562 6.015625 -6.75 C 5.660156 -7.03125 5.15625 -7.171875 4.5 -7.171875 L 2.03125 -7.171875 L 2.03125 -3.921875 Z M 4.5 -3.921875 "/></g></g></g></g></g></g><g clip-path="url(#0f4994019c)"><g transform="matrix(1, 0, 0, 1, 51, 60)"><g clip-path="url(#a33b7bb46a)"><g fill="#000000" fill-opacity="1"><g transform="translate(0.419745, 11.346552)"><g><path d="M 0.953125 -7.984375 L 2.84375 -7.984375 L 4.953125 -4.609375 L 7.046875 -7.984375 L 8.9375 -7.984375 L 8.9375 0 L 7.203125 0 L 7.203125 -5.21875 L 4.953125 -1.796875 L 4.90625 -1.796875 L 2.6875 -5.171875 L 2.6875 0 L 0.953125 0 Z M 0.953125 -7.984375 "/></g></g></g><g fill="#000000" fill-opacity="1"><g transform="translate(11.172388, 11.346552)"><g><path d="M 0.953125 -7.984375 L 6.984375 -7.984375 L 6.984375 -6.421875 L 2.703125 -6.421875 L 2.703125 -4.796875 L 6.46875 -4.796875 L 6.46875 -3.234375 L 2.703125 -3.234375 L 2.703125 -1.5625 L 7.03125 -1.5625 L 7.03125 0 L 0.953125 0 Z M 0.953125 -7.984375 "/></g></g></g><g fill="#000000" fill-opacity="1"><g transform="translate(19.667582, 11.346552)"><g><path d="M 1.03125 -7.984375 L 2.796875 -7.984375 L 2.796875 0 L 1.03125 0 Z M 1.03125 -7.984375 "/></g></g></g><g fill="#000000" fill-opacity="1"><g transform="translate(24.354773, 11.346552)"><g><path d="M 3.796875 0.109375 C 3.191406 0.109375 2.59375 0.00390625 2 -0.203125 C 1.414062 -0.410156 0.882812 -0.726562 0.40625 -1.15625 L 1.453125 -2.40625 C 1.816406 -2.113281 2.1875 -1.878906 2.5625 -1.703125 C 2.945312 -1.523438 3.367188 -1.4375 3.828125 -1.4375 C 4.191406 -1.4375 4.472656 -1.503906 4.671875 -1.640625 C 4.878906 -1.773438 4.984375 -1.957031 4.984375 -2.1875 L 4.984375 -2.21875 C 4.984375 -2.332031 4.960938 -2.429688 4.921875 -2.515625 C 4.878906 -2.597656 4.796875 -2.675781 4.671875 -2.75 C 4.554688 -2.832031 4.394531 -2.910156 4.1875 -2.984375 C 3.976562 -3.066406 3.707031 -3.148438 3.375 -3.234375 C 2.96875 -3.328125 2.601562 -3.429688 2.28125 -3.546875 C 1.957031 -3.671875 1.679688 -3.820312 1.453125 -4 C 1.222656 -4.1875 1.046875 -4.410156 0.921875 -4.671875 C 0.796875 -4.941406 0.734375 -5.273438 0.734375 -5.671875 L 0.734375 -5.6875 C 0.734375 -6.050781 0.800781 -6.378906 0.9375 -6.671875 C 1.070312 -6.972656 1.257812 -7.226562 1.5 -7.4375 C 1.75 -7.644531 2.046875 -7.804688 2.390625 -7.921875 C 2.734375 -8.035156 3.113281 -8.09375 3.53125 -8.09375 C 4.113281 -8.09375 4.648438 -8.003906 5.140625 -7.828125 C 5.628906 -7.660156 6.078125 -7.410156 6.484375 -7.078125 L 5.578125 -5.765625 C 5.222656 -6.003906 4.875 -6.191406 4.53125 -6.328125 C 4.1875 -6.472656 3.84375 -6.546875 3.5 -6.546875 C 3.15625 -6.546875 2.894531 -6.476562 2.71875 -6.34375 C 2.550781 -6.207031 2.46875 -6.039062 2.46875 -5.84375 L 2.46875 -5.828125 C 2.46875 -5.703125 2.492188 -5.585938 2.546875 -5.484375 C 2.597656 -5.390625 2.6875 -5.304688 2.8125 -5.234375 C 2.945312 -5.160156 3.125 -5.085938 3.34375 -5.015625 C 3.570312 -4.953125 3.859375 -4.875 4.203125 -4.78125 C 4.597656 -4.675781 4.953125 -4.554688 5.265625 -4.421875 C 5.585938 -4.285156 5.859375 -4.125 6.078125 -3.9375 C 6.296875 -3.75 6.457031 -3.53125 6.5625 -3.28125 C 6.675781 -3.03125 6.734375 -2.734375 6.734375 -2.390625 L 6.734375 -2.359375 C 6.734375 -1.960938 6.660156 -1.609375 6.515625 -1.296875 C 6.367188 -0.992188 6.164062 -0.738281 5.90625 -0.53125 C 5.644531 -0.320312 5.335938 -0.160156 4.984375 -0.046875 C 4.628906 0.0546875 4.234375 0.109375 3.796875 0.109375 Z M 3.796875 0.109375 "/></g></g></g><g fill="#000000" fill-opacity="1"><g transform="translate(32.507932, 11.346552)"><g><path d="M 2.8125 -6.359375 L 0.390625 -6.359375 L 0.390625 -7.984375 L 7 -7.984375 L 7 -6.359375 L 4.578125 -6.359375 L 4.578125 0 L 2.8125 0 Z M 2.8125 -6.359375 "/></g></g></g><g fill="#000000" fill-opacity="1"><g transform="translate(40.752297, 11.346552)"><g><path d="M 0.953125 -7.984375 L 6.984375 -7.984375 L 6.984375 -6.421875 L 2.703125 -6.421875 L 2.703125 -4.796875 L 6.46875 -4.796875 L 6.46875 -3.234375 L 2.703125 -3.234375 L 2.703125 -1.5625 L 7.03125 -1.5625 L 7.03125 0 L 0.953125 0 Z M 0.953125 -7.984375 "/></g></g></g><g fill="#000000" fill-opacity="1"><g transform="translate(49.24749, 11.346552)"><g><path d="M 0.953125 -7.984375 L 4.609375 -7.984375 C 5.617188 -7.984375 6.394531 -7.710938 6.9375 -7.171875 C 7.394531 -6.710938 7.625 -6.101562 7.625 -5.34375 L 7.625 -5.328125 C 7.625 -4.679688 7.460938 -4.15625 7.140625 -3.75 C 6.828125 -3.34375 6.414062 -3.039062 5.90625 -2.84375 L 7.859375 0 L 5.8125 0 L 4.09375 -2.5625 L 2.71875 -2.5625 L 2.71875 0 L 0.953125 0 Z M 4.5 -4.109375 C 4.925781 -4.109375 5.253906 -4.207031 5.484375 -4.40625 C 5.722656 -4.613281 5.84375 -4.890625 5.84375 -5.234375 L 5.84375 -5.265625 C 5.84375 -5.640625 5.71875 -5.921875 5.46875 -6.109375 C 5.226562 -6.304688 4.890625 -6.40625 4.453125 -6.40625 L 2.71875 -6.40625 L 2.71875 -4.109375 Z M 4.5 -4.109375 "/></g></g></g><g fill="#000000" fill-opacity="1"><g transform="translate(58.346948, 11.346552)"><g><path d="M 0.953125 -7.984375 L 4.671875 -7.984375 C 5.585938 -7.984375 6.28125 -7.75 6.75 -7.28125 C 7.113281 -6.914062 7.296875 -6.460938 7.296875 -5.921875 L 7.296875 -5.890625 C 7.296875 -5.671875 7.265625 -5.472656 7.203125 -5.296875 C 7.148438 -5.117188 7.078125 -4.957031 6.984375 -4.8125 C 6.890625 -4.675781 6.78125 -4.550781 6.65625 -4.4375 C 6.53125 -4.332031 6.394531 -4.242188 6.25 -4.171875 C 6.71875 -3.992188 7.082031 -3.753906 7.34375 -3.453125 C 7.613281 -3.160156 7.75 -2.75 7.75 -2.21875 L 7.75 -2.1875 C 7.75 -1.820312 7.675781 -1.503906 7.53125 -1.234375 C 7.394531 -0.960938 7.191406 -0.734375 6.921875 -0.546875 C 6.660156 -0.367188 6.34375 -0.234375 5.96875 -0.140625 C 5.601562 -0.046875 5.195312 0 4.75 0 L 0.953125 0 Z M 5.5625 -5.625 C 5.5625 -5.882812 5.460938 -6.082031 5.265625 -6.21875 C 5.066406 -6.363281 4.78125 -6.4375 4.40625 -6.4375 L 2.671875 -6.4375 L 2.671875 -4.75 L 4.28125 -4.75 C 4.675781 -4.75 4.988281 -4.816406 5.21875 -4.953125 C 5.445312 -5.085938 5.5625 -5.300781 5.5625 -5.59375 Z M 6 -2.421875 C 6 -2.691406 5.894531 -2.90625 5.6875 -3.0625 C 5.488281 -3.21875 5.160156 -3.296875 4.703125 -3.296875 L 2.671875 -3.296875 L 2.671875 -1.546875 L 4.75 -1.546875 C 5.144531 -1.546875 5.453125 -1.613281 5.671875 -1.75 C 5.890625 -1.894531 6 -2.113281 6 -2.40625 Z M 6 -2.421875 "/></g></g></g><g fill="#000000" fill-opacity="1"><g transform="translate(67.435004, 11.346552)"><g><path d="M 0.953125 -7.984375 L 6.984375 -7.984375 L 6.984375 -6.421875 L 2.703125 -6.421875 L 2.703125 -4.796875 L 6.46875 -4.796875 L 6.46875 -3.234375 L 2.703125 -3.234375 L 2.703125 -1.5625 L 7.03125 -1.5625 L 7.03125 0 L 0.953125 0 Z M 0.953125 -7.984375 "/></g></g></g><g fill="#000000" fill-opacity="1"><g transform="translate(75.930197, 11.346552)"><g><path d="M 2.8125 -6.359375 L 0.390625 -6.359375 L 0.390625 -7.984375 L 7 -7.984375 L 7 -6.359375 L 4.578125 -6.359375 L 4.578125 0 L 2.8125 0 Z M 2.8125 -6.359375 "/></g></g></g><g fill="#000000" fill-opacity="1"><g transform="translate(84.174562, 11.346552)"><g><path d="M 0.953125 -7.984375 L 4.609375 -7.984375 C 5.617188 -7.984375 6.394531 -7.710938 6.9375 -7.171875 C 7.394531 -6.710938 7.625 -6.101562 7.625 -5.34375 L 7.625 -5.328125 C 7.625 -4.679688 7.460938 -4.15625 7.140625 -3.75 C 6.828125 -3.34375 6.414062 -3.039062 5.90625 -2.84375 L 7.859375 0 L 5.8125 0 L 4.09375 -2.5625 L 2.71875 -2.5625 L 2.71875 0 L 0.953125 0 Z M 4.5 -4.109375 C 4.925781 -4.109375 5.253906 -4.207031 5.484375 -4.40625 C 5.722656 -4.613281 5.84375 -4.890625 5.84375 -5.234375 L 5.84375 -5.265625 C 5.84375 -5.640625 5.71875 -5.921875 5.46875 -6.109375 C 5.226562 -6.304688 4.890625 -6.40625 4.453125 -6.40625 L 2.71875 -6.40625 L 2.71875 -4.109375 Z M 4.5 -4.109375 "/></g></g></g><g fill="#000000" fill-opacity="1"><g transform="translate(93.27402, 11.346552)"><g><path d="M 1.03125 -7.984375 L 2.796875 -7.984375 L 2.796875 0 L 1.03125 0 Z M 1.03125 -7.984375 "/></g></g></g><g fill="#000000" fill-opacity="1"><g transform="translate(97.961212, 11.346552)"><g><path d="M 0.953125 -7.984375 L 6.984375 -7.984375 L 6.984375 -6.421875 L 2.703125 -6.421875 L 2.703125 -4.796875 L 6.46875 -4.796875 L 6.46875 -3.234375 L 2.703125 -3.234375 L 2.703125 -1.5625 L 7.03125 -1.5625 L 7.03125 0 L 0.953125 0 Z M 0.953125 -7.984375 "/></g></g></g><g fill="#000000" fill-opacity="1"><g transform="translate(106.456405, 11.346552)"><g><path d="M 0.953125 -7.984375 L 4.671875 -7.984375 C 5.585938 -7.984375 6.28125 -7.75 6.75 -7.28125 C 7.113281 -6.914062 7.296875 -6.460938 7.296875 -5.921875 L 7.296875 -5.890625 C 7.296875 -5.671875 7.265625 -5.472656 7.203125 -5.296875 C 7.148438 -5.117188 7.078125 -4.957031 6.984375 -4.8125 C 6.890625 -4.675781 6.78125 -4.550781 6.65625 -4.4375 C 6.53125 -4.332031 6.394531 -4.242188 6.25 -4.171875 C 6.71875 -3.992188 7.082031 -3.753906 7.34375 -3.453125 C 7.613281 -3.160156 7.75 -2.75 7.75 -2.21875 L 7.75 -2.1875 C 7.75 -1.820312 7.675781 -1.503906 7.53125 -1.234375 C 7.394531 -0.960938 7.191406 -0.734375 6.921875 -0.546875 C 6.660156 -0.367188 6.34375 -0.234375 5.96875 -0.140625 C 5.601562 -0.046875 5.195312 0 4.75 0 L 0.953125 0 Z M 5.5625 -5.625 C 5.5625 -5.882812 5.460938 -6.082031 5.265625 -6.21875 C 5.066406 -6.363281 4.78125 -6.4375 4.40625 -6.4375 L 2.671875 -6.4375 L 2.671875 -4.75 L 4.28125 -4.75 C 4.675781 -4.75 4.988281 -4.816406 5.21875 -4.953125 C 5.445312 -5.085938 5.5625 -5.300781 5.5625 -5.59375 Z M 6 -2.421875 C 6 -2.691406 5.894531 -2.90625 5.6875 -3.0625 C 5.488281 -3.21875 5.160156 -3.296875 4.703125 -3.296875 L 2.671875 -3.296875 L 2.671875 -1.546875 L 4.75 -1.546875 C 5.144531 -1.546875 5.453125 -1.613281 5.671875 -1.75 C 5.890625 -1.894531 6 -2.113281 6 -2.40625 Z M 6 -2.421875 "/></g></g></g><g fill="#000000" fill-opacity="1"><g transform="translate(115.556619, 11.346552)"><g/></g></g></g></g></g></g></g></svg>