<svg xmlns="http://www.w3.org/2000/svg" xmlns:xlink="http://www.w3.org/1999/xlink" width="500" zoomAndPan="magnify" viewBox="0 0 375 374.999991" height="500" preserveAspectRatio="xMidYMid meet" version="1.0"><defs><clipPath id="dedc50cc1c"><path d="M 73.933594 3.867188 L 301.957031 3.867188 L 301.957031 371.1875 L 73.933594 371.1875 Z M 73.933594 3.867188 " clip-rule="nonzero"/></clipPath><clipPath id="3071a64e05"><path d="M 168.601562 370.058594 C 145.585938 365.78125 123.207031 354.128906 107.148438 338.085938 C 101.015625 331.953125 89.390625 316.960938 90.175781 316.191406 C 91.601562 314.765625 103.625 313.539062 116.148438 313.539062 C 139.136719 313.539062 156.195312 317.191406 185.402344 328.398438 C 207.554688 336.886719 219.148438 339.339844 237.589844 339.382812 C 247.914062 339.410156 254.6875 338.839844 261.363281 337.386719 C 270.621094 335.375 270.691406 335.375 268.851562 337.441406 C 265.3125 341.449219 251.367188 352.03125 243.75 356.46875 C 234.050781 362.128906 218.734375 367.636719 206.910156 369.6875 C 196.886719 371.441406 177.0625 371.628906 168.601562 370.058594 Z M 244.691406 322.253906 C 260.292969 310.945312 269.734375 288.695312 266.5 270.839844 C 263.230469 252.855469 256.160156 240.347656 231.882812 209.769531 C 211.960938 184.667969 207.382812 172.988281 207.226562 146.929688 C 207.183594 138.542969 206.996094 131.683594 206.839844 131.683594 C 204.984375 131.683594 189.382812 140.667969 183.535156 145.117188 C 158.25 164.316406 145.457031 197.71875 149.820312 233.171875 C 150.503906 238.691406 150.863281 243.414062 150.605469 243.640625 C 150.347656 243.871094 148.679688 241.859375 146.867188 239.121094 C 143.015625 233.300781 139.78125 223.960938 138.027344 213.546875 L 136.769531 206.117188 L 133.132812 210.339844 C 119.5 226.183594 107.789062 246.222656 105.039062 258.429688 C 103.511719 265.175781 103.125 278.125 104.210938 285.441406 L 105.050781 291.0625 L 99.933594 291.089844 C 97.121094 291.105469 91.488281 291.589844 87.410156 292.1875 C 82.105469 292.960938 79.792969 292.929688 79.265625 292.074219 C 78.867188 291.417969 77.453125 286.097656 76.113281 280.238281 C 72.675781 265.046875 73.375 247.433594 77.953125 234.386719 C 84.03125 217.070312 93.101562 200.554688 119.414062 158.980469 C 139.152344 127.761719 146.554688 115.496094 154.898438 100.136719 C 172.511719 67.703125 182.324219 39.765625 186.84375 9.214844 L 187.628906 3.867188 L 189.039062 13.324219 C 195.160156 54.113281 212.34375 91.949219 253.90625 156.144531 C 279.261719 195.292969 292.953125 220.707031 298.058594 238.121094 C 302.894531 254.550781 301.867188 275.089844 295.234375 294.429688 C 291.128906 306.421875 284.980469 317.589844 281.488281 319.402344 C 275.453125 322.523438 260.921875 325.292969 250.539062 325.292969 L 240.484375 325.304688 Z M 244.691406 322.253906 " clip-rule="nonzero"/></clipPath><clipPath id="c6ed23562a"><path d="M 0.933594 0.867188 L 228.199219 0.867188 L 228.199219 368.1875 L 0.933594 368.1875 Z M 0.933594 0.867188 " clip-rule="nonzero"/></clipPath><clipPath id="85c6670cba"><path d="M 95.601562 367.058594 C 72.585938 362.78125 50.207031 351.128906 34.148438 335.085938 C 28.015625 328.953125 16.390625 313.960938 17.175781 313.191406 C 18.601562 311.765625 30.625 310.539062 43.148438 310.539062 C 66.136719 310.539062 83.195312 314.191406 112.402344 325.398438 C 134.554688 333.886719 146.148438 336.339844 164.589844 336.382812 C 174.914062 336.410156 181.6875 335.839844 188.363281 334.386719 C 197.621094 332.375 197.691406 332.375 195.851562 334.441406 C 192.3125 338.449219 178.367188 349.03125 170.75 353.46875 C 161.050781 359.128906 145.734375 364.636719 133.910156 366.6875 C 123.886719 368.441406 104.0625 368.628906 95.601562 367.058594 Z M 171.691406 319.253906 C 187.292969 307.945312 196.734375 285.695312 193.5 267.839844 C 190.230469 249.855469 183.160156 237.347656 158.882812 206.769531 C 138.960938 181.667969 134.382812 169.988281 134.226562 143.929688 C 134.183594 135.542969 133.996094 128.683594 133.839844 128.683594 C 131.984375 128.683594 116.382812 137.667969 110.535156 142.117188 C 85.25 161.316406 72.457031 194.71875 76.820312 230.171875 C 77.503906 235.691406 77.863281 240.414062 77.605469 240.640625 C 77.347656 240.871094 75.679688 238.859375 73.867188 236.121094 C 70.015625 230.300781 66.78125 220.960938 65.027344 210.546875 L 63.769531 203.117188 L 60.132812 207.339844 C 46.5 223.183594 34.789062 243.222656 32.039062 255.429688 C 30.511719 262.175781 30.125 275.125 31.210938 282.441406 L 32.050781 288.0625 L 26.933594 288.089844 C 24.121094 288.105469 18.488281 288.589844 14.410156 289.1875 C 9.105469 289.960938 6.792969 289.929688 6.265625 289.074219 C 5.867188 288.417969 4.453125 283.097656 3.113281 277.238281 C -0.324219 262.046875 0.375 244.433594 4.953125 231.386719 C 11.03125 214.070312 20.101562 197.554688 46.414062 155.980469 C 66.152344 124.761719 73.554688 112.496094 81.898438 97.136719 C 99.511719 64.703125 109.324219 36.765625 113.84375 6.214844 L 114.628906 0.867188 L 116.039062 10.324219 C 122.160156 51.113281 139.34375 88.949219 180.90625 153.144531 C 206.261719 192.292969 219.953125 217.707031 225.058594 235.121094 C 229.894531 251.550781 228.867188 272.089844 222.234375 291.429688 C 218.128906 303.421875 211.980469 314.589844 208.488281 316.402344 C 202.453125 319.523438 187.921875 322.292969 177.539062 322.292969 L 167.484375 322.304688 Z M 171.691406 319.253906 " clip-rule="nonzero"/></clipPath><clipPath id="5f51f52a3c"><rect x="0" width="229" y="0" height="369"/></clipPath></defs><g clip-path="url(#dedc50cc1c)"><g clip-path="url(#3071a64e05)"><g transform="matrix(1, 0, 0, 1, 73, 3)"><g clip-path="url(#5f51f52a3c)"><g clip-path="url(#c6ed23562a)"><g clip-path="url(#85c6670cba)"><path fill="#7cc000" d="M 0.933594 0.867188 L 228.066406 0.867188 L 228.066406 368.1875 L 0.933594 368.1875 Z M 0.933594 0.867188 " fill-opacity="1" fill-rule="nonzero"/></g></g></g></g></g></g></svg>